<?xml version="1.0" encoding="utf-8"?>
<!-- Generator: Adobe Illustrator 16.0.0, SVG Export Plug-In . SVG Version: 6.00 Build 0)  -->
<!DOCTYPE svg PUBLIC "-//W3C//DTD SVG 1.1//EN" "http://www.w3.org/Graphics/SVG/1.1/DTD/svg11.dtd">
<svg version="1.1" id="Layer_1" xmlns="http://www.w3.org/2000/svg" xmlns:xlink="http://www.w3.org/1999/xlink" x="0px" y="0px"
	 width="1440px" height="540px" viewBox="0 0 1440 540" enable-background="new 0 0 1440 540" xml:space="preserve">
<g>
	<path d="M839.808,196.086H707.432c-3.734,0-6.762,2.34-6.762,5.255v94.842c0,2.9,3.027,5.254,6.762,5.254h66.185
		c4.614-3.604,10.344-5.832,16.646-5.832c6.306,0,12.043,2.228,16.658,5.832h32.887c3.741,0,6.771-2.354,6.771-5.254v-94.842
		C846.579,198.426,843.549,196.086,839.808,196.086z"/>
	<path d="M813.854,309.467c2.238,3.953,3.623,8.48,3.623,13.332c0,0.653-0.135,1.268-0.195,1.895h20.902
		c4.643,0,8.395-0.314,8.395-0.717v-13.799c0-0.381-3.752-0.711-8.395-0.711H813.854z"/>
	<path d="M694.818,309.467v-90.498c0-3.191-2.353-5.79-5.247-5.79h-59c-2.902,0-5.497,0.987-9.808,5.79l-27.067,44.321v55.624
		c0,3.186,2.348,5.779,5.248,5.779h29.393c-0.048-0.629-0.189-1.241-0.189-1.895c0-15.016,12.173-27.197,27.209-27.193
		c15.025,0,27.213,12.178,27.213,27.193c0,0.653-0.152,1.268-0.199,1.895h80.878c-0.053-0.627-0.188-1.241-0.188-1.895
		c0-4.852,1.377-9.379,3.626-13.332H694.818z M665.425,276.23c0,1.664-1.214,2.996-2.717,2.996H609.04
		c-1.503,0-2.723-1.332-2.723-2.996v-8.476l20.784-43.231c2.218-2.503,3.567-3.008,5.065-3.008h30.541
		c1.503,0,2.717,1.333,2.717,3.008V276.23z"/>
	<path d="M655.356,301.074c-11.993,0-21.721,9.731-21.721,21.725c0,11.996,9.728,21.74,21.721,21.74s21.727-9.744,21.727-21.74
		C677.083,310.806,667.35,301.074,655.356,301.074z"/>
	<path d="M790.263,301.074c-11.993,0-21.726,9.731-21.726,21.725c0,11.996,9.732,21.74,21.726,21.74
		c11.996,0,21.731-9.744,21.731-21.74C811.994,310.806,802.259,301.074,790.263,301.074z"/>
</g>
</svg>
