<?xml version="1.0" encoding="utf-8"?>
<!-- Generator: Adobe Illustrator 16.0.0, SVG Export Plug-In . SVG Version: 6.00 Build 0)  -->
<!DOCTYPE svg PUBLIC "-//W3C//DTD SVG 1.1//EN" "http://www.w3.org/Graphics/SVG/1.1/DTD/svg11.dtd">
<svg version="1.1" id="Layer_1" xmlns="http://www.w3.org/2000/svg" xmlns:xlink="http://www.w3.org/1999/xlink" x="0px" y="0px"
	 width="1440px" height="540px" viewBox="0 0 1440 540" enable-background="new 0 0 1440 540" xml:space="preserve">
<g>
	<path fill="#231F20" d="M669.356,200.995c-2.593,2.542-13.468,13.218-13.468,13.218l11.616,20.123
		c-2.607,4.594-6.791,12.768-7.892,20.968l-23.147,5.431c-0.027,3.078-0.687,18.982-0.687,18.982l23.555,5.353
		c2.966,12.343,2.45,12.851,8.529,21.119l-12.495,19.385c2.541,2.591,13.215,13.468,13.215,13.468l20.125-11.618
		c4.079,3.118,12.768,6.791,20.958,8.921l4.922,22.626c3.6-0.481,19.501,0.181,19.501,0.181l5.344-22.53l0.517-0.51
		c5.14-0.979,13.898-4.488,20.612-9.044l19.383,12.495c2.591-2.539,13.469-13.216,13.469-13.216l-12.135-19.617l0.519-0.506
		c3.114-4.079,6.787-12.769,8.401-20.453l23.143-5.428c-0.479-3.595-0.338-18.994-0.338-18.994l-22.531-5.34
		c-0.978-5.142-3.971-14.408-8.523-21.123l11.987-19.902c-2.031-2.072-13.223-13.466-13.223-13.466L761.1,213.653
		c-4.596-2.611-13.275-7.31-21.476-8.413l-4.922-22.627c-3.589-0.544-18.982-0.688-18.982-0.688l-5.86,23.038
		c-11.825,2.458-12.344,2.967-21.12,8.53L669.356,200.995z M742.549,252.988c9.516,9.696,9.369,25.46-0.576,35.222
		c-9.693,9.516-25.458,9.37-34.976-0.325c-9.762-9.945-9.614-25.708,0.081-35.226C717.022,242.898,732.787,243.044,742.549,252.988z
		"/>
</g>
</svg>
