<?xml version="1.0" encoding="utf-8"?>
<!-- Generator: Adobe Illustrator 16.0.0, SVG Export Plug-In . SVG Version: 6.00 Build 0)  -->
<!DOCTYPE svg PUBLIC "-//W3C//DTD SVG 1.1//EN" "http://www.w3.org/Graphics/SVG/1.1/DTD/svg11.dtd">
<svg version="1.1" id="Layer_1" xmlns="http://www.w3.org/2000/svg" xmlns:xlink="http://www.w3.org/1999/xlink" x="0px" y="0px"
	 width="1440px" height="540px" viewBox="0 0 1440 540" enable-background="new 0 0 1440 540" xml:space="preserve">
<g>
	<circle cx="719.446" cy="164.996" r="21.859"/>
	<path d="M760.689,197.913c-2.727-1.852-5.518-3.028-8.227-3.697v-0.175c0-3.143-66.033-3.143-66.033,0v0.284
		c-2.583,0.684-5.233,1.828-7.827,3.588c-17.302,11.749-24.336,45.004-21.504,101.669c0.304,6.086,5.335,10.818,11.362,10.816
		c0.192,0,0.385-0.004,0.579-0.015c6.278-0.313,11.115-5.658,10.802-11.939c-2.248-44.95,2.429-65.427,6.589-74.641v1.738v55.027
		v7.969v107.4c0,8.175,6.625,14.802,14.801,14.802c8.174,0,14.8-6.627,14.8-14.802v-107.4h6.831v107.4
		c0,8.175,6.627,14.802,14.801,14.802s14.801-6.627,14.801-14.802v-107.4v-7.969v-55.027v-2.936l0.022,0.387
		c4.248,8.8,9.282,29.135,6.967,75.453c-0.313,6.281,4.522,11.626,10.802,11.939c0.194,0.011,0.387,0.015,0.578,0.015
		c6.027,0.002,11.058-4.73,11.361-10.816C785.027,242.917,777.992,209.662,760.689,197.913z"/>
</g>
</svg>
